<?xml version="1.0" encoding="UTF-8"?>
<!DOCTYPE svg PUBLIC "-//W3C//DTD SVG 1.1//EN" "http://www.w3.org/Graphics/SVG/1.1/DTD/svg11.dtd">
<!-- Creator: CorelDRAW 2021 (64-Bit) -->
<svg xmlns="http://www.w3.org/2000/svg" xml:space="preserve" width="50.7998mm" height="12.6998mm" version="1.1" style="shape-rendering:geometricPrecision; text-rendering:geometricPrecision; image-rendering:optimizeQuality; fill-rule:evenodd; clip-rule:evenodd"
viewBox="0 0 5079.98 1269.98"
 xmlns:xlink="http://www.w3.org/1999/xlink"
 xmlns:xodm="http://www.corel.com/coreldraw/odm/2003">
 <defs>
  <style type="text/css">
   <![CDATA[
    .fil0 {fill:white;fill-rule:nonzero}
   ]]>
  </style>
 </defs>
 <g id="Layer_x0020_1">
  <metadata id="CorelCorpID_0Corel-Layer"/>
  <g id="_1698865906624">
   <g>
    <path class="fil0" d="M2533.17 375.34c-0.58,-4.06 -2.46,-7.68 -5.07,-10.72 -3.76,-4.92 -9.56,-8.25 -17.38,-8.25 -16.22,0 -32.58,-3.19 -45.47,-10.43 -7.96,-4.63 -15.2,-10.43 -21.28,-17.38 -29.4,35.63 -62.57,67.78 -99.21,96.3 -0.28,16.8 -2.89,33.6 -7.81,49.68 -3.77,12.45 -8.98,24.61 -15.35,35.91 -22.16,39.68 -59.09,70.81 -101.95,85.73 -18.68,6.52 -38.52,10.14 -58.36,10.43l-3.04 0c-16.08,0 -32.15,-2.18 -47.79,-6.37 -3.48,1.73 -6.81,3.47 -10.28,5.21 -9.27,4.78 -18.54,9.99 -28.39,16.36 -4.05,2.61 -6.66,5.65 -8.4,9.99 -2.6,6.08 -5.79,13.61 -11,21.15 -8.83,12.74 -22.3,19.84 -37.8,20.27 -11.58,0.15 -21.29,-2.03 -30.55,-6.8 -4.78,4.77 -9.56,9.55 -14.34,14.33l-11.15 11.01c-6.81,6.8 -18.68,12.16 -30.99,13.03l-7.24 7.24c1.45,1.3 2.9,2.46 4.34,3.62 8.84,6.52 21.15,5.36 28.53,-2.9 23.89,-25.77 61.4,-34.17 93.26,-20.85 27.08,11.15 46.05,35.63 50.69,64.01 0.14,0.58 0.14,1.01 0.29,1.59 0.43,2.61 0.43,5.36 0.57,8.11 0.15,2.17 0.3,4.35 0.3,6.52 0,7.82 3.9,14.48 10.13,18.39 2.46,2.03 5.36,3.47 8.54,3.91 28.39,3.18 57.5,3.18 86.02,0 10.43,-1.74 18.97,-11.88 18.25,-22.59l-0.58 -4.35c0,0 0,-0.14 0,-0.29 0,-14.33 3.91,-28.23 11.44,-40.4 -0.29,-0.29 -0.58,-0.58 -0.87,-0.72 8.98,-15.93 22.88,-28.97 40.4,-36.21 31.29,-13.32 71.55,-3.76 93.84,20.71 7.68,8.4 20.13,9.42 28.82,2.17 21.87,-17.23 42,-38.08 59.38,-60.38 7.24,-8.26 6.08,-20.57 -2.17,-27.81 -25.93,-24.04 -34.18,-61.4 -20.57,-93.4 6.66,-17.09 18.83,-30.7 33.45,-39.68 10.14,-6.08 22.01,-10.14 34.18,-11.59 1.59,-0.14 3.19,-0.29 4.78,-0.29 2.9,-0.14 5.79,-0.43 8.54,-0.29 11.15,0 20.57,-7.96 21.72,-19.11 1.74,-13.32 2.18,-27.37 2.18,-41.27 0,-14.48 -0.44,-29.11 -2.61,-43.59zm-600.4 146.55l0 0 1.6 -0.72c3.18,-1.6 6.22,-3.05 9.55,-4.2 6.23,-2.32 11.01,-6.52 15.21,-13.62 6.66,-11 12.74,-22.3 18.68,-34.03 -2.9,-9.7 -4.92,-19.84 -6.08,-29.98l0 -0.72c-5.22,-47.5 8.69,-95.86 37.79,-133.81 28.82,-37.5 72.85,-62.85 119.47,-70.23 8.69,-1.45 17.38,-2.17 25.93,-2.32 28.38,-36.2 60.24,-68.93 95.14,-97.6 -19.84,-15.93 -31.43,-40.26 -30.99,-65.02 0,-3.48 -0.87,-6.95 -2.17,-10.29 -1.45,-4.63 -4.2,-8.39 -7.97,-11.15 -0.43,-0.43 -0.87,-0.72 -1.45,-1.15 -1.44,-0.87 -3.18,-1.45 -5.06,-1.89 -0.58,-0.14 -1.02,-0.58 -1.74,-0.72l-0.58 0c-0.44,0 -0.73,-0.29 -1.16,-0.29 -27.95,-3.33 -56.48,-2.9 -84.86,0 -10.72,1.74 -19.12,11.15 -18.39,22.3 0.29,4.06 0.14,8.11 -0.29,12.17 -1.45,12.01 -4.93,23.31 -10.43,33.01 0,0 0,0 0.15,0.15 -8.98,15.93 -22.89,28.96 -40.41,36.2 -31.28,13.47 -71.54,4.06 -93.98,-20.71 -7.53,-8.4 -20.13,-9.41 -28.82,-2.6 -21.87,17.66 -42,37.79 -59.95,60.09 -6.52,8.98 -5.51,21.29 2.89,28.68 25.78,23.89 34.03,61.25 20.71,93.26 -12.88,31.28 -43.59,51.84 -77.62,51.84 -11.15,0 -23.6,7.82 -24.76,18.53 -3.33,28.53 -3.33,57.64 0,86.03 0.87,5.35 3.91,10.13 7.96,13.46 4.06,3.62 9.27,5.65 15.07,5.36 12.88,-0.87 25.34,1.45 36.63,6.23 2.75,1.3 5.36,2.61 7.97,4.05 16.36,8.84 29.68,22.88 37.07,40.7 13.32,31.27 3.91,71.53 -20.85,93.83 -8.26,7.68 -9.42,20.14 -2.61,28.97 0.72,0.87 1.3,1.74 2.03,2.46l7.38 -7.38c1.02,-12.32 6.23,-24.05 13.04,-30.71l10.71 -10.86 14.92 -14.92c-4.2,-8.25 -6.37,-17.23 -6.52,-26.93 -0.29,-28.24 16.66,-40.55 26.79,-45.47z"/>
    <g>
     <path class="fil0" d="M2411.63 258.61c9.43,-9.32 11.88,-20.17 9.26,-31.87 -8.01,-35.66 -31.29,-57.63 -65.37,-68.27 -13.88,-4.33 -26.17,-1.28 -37.33,10.13 -44.11,45.12 -89.03,89.44 -133.65,134.05 -7.09,7.09 -12.45,7.6 -20.92,1.93 -6.09,-4.06 -9.67,-10.11 -13.07,-17.16 -29.13,29.15 -57.73,57.86 -86.48,86.44 -5.21,5.18 -9.52,10.88 -13.04,17.28 -9.89,18.04 -18.53,36.7 -27.56,55.16 -12.06,24.63 -23.79,49.41 -37.94,72.97 -7.46,12.41 -17.4,21.55 -31.06,26.58 -2.85,1.05 -5.56,2.46 -8.3,3.78 -7.29,3.52 -9.45,9.43 -9.36,17.33 0.12,11.37 5.6,19.43 13.94,26.13 2.95,2.37 2.76,3.96 0.05,6.61 -14.19,13.93 -28.17,28.08 -42.22,42.15 -3.47,3.46 -5.8,14.81 -2.75,18.38 2.83,3.31 0.81,4.49 -1.01,6.31 -4.18,4.18 -8.34,8.36 -12.51,12.55l-1.6 -1.6 -33.97 33.97 -40.66 -40.67c-1.2,-1.19 -3.13,-1.19 -4.33,0 -1.19,1.19 -1.19,3.13 0,4.33l92.85 92.84c1.19,1.2 3.13,1.2 4.33,0 1.19,-1.19 1.19,-3.13 0,-4.32l-41.89 -41.89 33.97 -33.96 -1.51 -1.51c4.19,-4.17 8.38,-8.34 12.56,-12.52 1.82,-1.82 3.01,-3.84 6.3,-1 3.49,3.01 14.99,0.68 18.4,-2.72 13.52,-13.52 27.24,-26.86 40.46,-40.67 3.98,-4.16 6.38,-4.56 9.91,0.07 6.63,8.71 15.32,13.31 26.57,13 5.89,-0.16 10.21,-2.48 13.52,-7.17 3.32,-4.72 5.49,-10.01 7.67,-15.28 4.23,-10.2 10.94,-18.16 20.28,-24.14 10.13,-6.47 20.51,-12.48 31.23,-17.87 32.84,-16.51 65.76,-32.83 98.61,-49.27 5.11,-2.57 10.39,-5.1 14.46,-9.16 30.47,-30.35 60.82,-60.83 91.57,-91.63 -10.08,-4.39 -17.21,-11.19 -20.08,-22.05 -1.06,-4.02 -0.4,-6.58 2.57,-9.54 46.07,-45.87 91.86,-92.02 138.1,-137.72zm-3.99 -11.28l0 0c-7.39,8.41 -15.05,16.59 -23.84,23.61 -0.4,0.32 -1.07,0.34 -1.55,0.48 -1.78,-0.42 -3.4,-1.02 -4.15,-2.76 -0.81,-1.87 -0.82,-3.81 0.69,-5.31 7.24,-7.29 14.49,-14.58 21.85,-21.75 1.71,-1.66 3.8,-1.35 5.69,0.13 1.96,1.54 2.6,4.13 1.31,5.6zm-6.54 -22.92l0 0c0.3,1.93 -1.2,3.21 -2.55,4.57 -8.52,8.51 -17.08,16.99 -25.54,25.55 -2.43,2.46 -5.06,3.91 -7.93,1.33 -3.32,-3 -1.4,-5.76 1.11,-8.27 8.53,-8.5 17.08,-17 25.52,-25.57 1.96,-1.98 4.04,-2.93 6.67,-1.91 1.71,0.67 2.67,2.09 2.72,4.3zm-6.95 -21.54l0 0c0.02,2.43 -1.17,3.68 -2.4,4.91 -10.95,10.93 -21.92,21.87 -32.85,32.84 -2.4,2.41 -5,3.87 -7.93,1.16 -3.04,-2.82 -1.56,-5.39 0.88,-7.83 11.11,-11.06 22.17,-22.16 33.27,-33.24 1.67,-1.65 3.43,-3.1 6.05,-1.78 1.88,0.94 2.94,2.34 2.98,3.94zm-37.82 -24.91l0 0c1.61,0.76 2.65,2.19 2.5,3.91 0.16,2.37 -1.08,3.76 -2.48,5.14 -8.53,8.5 -17.03,17.03 -25.54,25.55 -2.33,2.36 -4.96,4.09 -7.86,1.16 -2.72,-2.75 -1.61,-5.41 0.9,-7.89 8.83,-8.73 17.59,-17.53 26.33,-26.36 1.82,-1.84 3.82,-2.62 6.15,-1.51zm-46.85 14.07l0 0c6.61,-6.59 13.22,-13.17 19.81,-19.78 1.84,-1.84 4.02,-2.34 6.23,-1.15 1.49,0.79 2.65,2.22 2.41,4.21 0.17,1.97 -1.19,3.12 -2.38,4.32 -6.32,6.34 -12.68,12.64 -18.97,19.01 -2.47,2.51 -5.18,3.58 -7.9,0.86 -2.56,-2.54 -1.48,-5.19 0.8,-7.47zm26.49 34.58l0 0c-1.16,-2.29 -0.5,-4.44 1.32,-6.24 5.83,-5.81 11.64,-11.62 17.45,-17.43 5.41,-5.41 10.82,-10.81 16.22,-16.22 2.27,-2.29 4.8,-3.49 7.49,-0.98 2.93,2.73 1.81,5.38 -0.68,7.88 -11.11,11.06 -22.18,22.15 -33.28,33.23 -1.21,1.21 -2.43,2.48 -4.38,2.37 -1.92,0 -3.37,-1.06 -4.14,-2.61z"/>
     <path class="fil0" d="M2461.68 162.88c-17.14,-15.79 -33.27,-32.69 -49.58,-49.37 -12.19,-12.48 -26.9,-15.91 -43.5,-13.25 -19.84,3.18 -37.06,12.49 -53.37,23.6 -60.16,40.97 -111.18,91.3 -153.45,150.52 -4.89,6.86 -4.82,8.77 0.25,15.46 1.88,2.48 4.29,4.3 6.89,5.96 3.82,2.44 6.6,2.43 10.28,-1.27 45.79,-46.14 91.98,-91.88 137.66,-138.13 10.84,-10.98 23.21,-13.49 37.12,-10.09 25.78,6.32 45.22,22.3 61.23,42.72 10.19,13 17,27.53 17,44.52 0.12,11.92 -3.33,21.74 -12.34,30.6 -44.99,44.24 -89.4,89.06 -134.01,133.68 -6.49,6.49 -6.5,9.61 0,16.47 6.54,6.91 11.47,7.45 19.05,2.03 54.87,-39.25 102.07,-86.21 141.5,-140.96 12.41,-17.22 23.86,-34.95 29.72,-55.65 6.15,-21.73 3.09,-40.68 -14.45,-56.84z"/>
    </g>
    <polygon class="fil0" points="1743.18,697.58 1613.41,697.58 1613.41,358.39 1382.36,688.09 1151.3,358.39 1151.3,697.58 1021.52,697.58 1021.52,141.04 1157.62,141.04 1382.36,462.31 1608.13,141.04 1743.18,141.04 "/>
    <path class="fil0" d="M3125.69 521.39c0,49.94 -17.59,91.98 -52.76,126.08 -34.47,33.42 -77.01,50.11 -127.66,50.11l-371.98 0 0 -556.54 371.98 0c49.94,0 92.49,17.06 127.66,51.16 35.17,34.47 52.76,76.16 52.76,125.03l0 204.16zm-422.63 -250.57l0 0 0 296.99 242.21 0c33.06,0 49.6,-15.47 49.6,-46.42l0 -204.16c0,-30.94 -16.54,-46.41 -49.6,-46.41l-242.21 0z"/>
    <path class="fil0" d="M3493.63 192.11c-35.22,-33.92 -77.89,-50.99 -127.78,-50.99l-270.25 0c7.01,5.25 14.01,11.38 20.57,17.73 33.05,32.16 53.83,69.8 62.37,112.03l187.31 0c33.04,0 49.67,15.32 49.67,46.39l0 204.16c0,30.85 -16.63,46.39 -49.67,46.39l-187.1 0c-8.53,43.11 -29.53,81.18 -62.58,113.13 -6.12,5.91 -12.47,11.59 -19.25,16.63l268.93 0c50.76,0 93.21,-16.63 127.78,-50.11 35.02,-34.14 52.74,-76.15 52.74,-126.04l0 -204.16c0,-49.01 -17.72,-90.59 -52.74,-125.16z"/>
    <polygon class="fil0" points="3729.89,697.58 3600.12,697.58 3600.12,141.04 3729.89,141.04 "/>
    <polygon class="fil0" points="4376.65,697.58 4247.39,697.58 3913.47,322.51 3913.47,697.58 3783.7,697.58 3783.7,141.04 3913.47,141.04 4247.39,512.95 4247.39,141.04 4376.65,141.04 "/>
    <path class="fil0" d="M5041.87 697.58l-429.95 0c-50.64,0 -93.36,-16.69 -128.19,-50.11 -35.52,-33.76 -53.27,-75.8 -53.27,-126.08l0 -204.16c0,-49.57 17.75,-91.44 53.27,-125.54 35.17,-33.76 77.89,-50.65 128.19,-50.65l429.95 0 0 129.78 -429.95 0c-34.47,0 -51.69,15.47 -51.69,46.41l0 204.16c0,30.95 17.22,46.42 51.69,46.42l300.18 0 0 -84.41 -175.68 0 0 -129.24 305.45 0 0 343.42z"/>
    <g>
     <path class="fil0" d="M3745.12 1201.36l-279.59 0c-32.93,0 -60.72,-10.86 -83.36,-32.59 -23.11,-21.96 -34.64,-49.29 -34.64,-82l0 -132.75c0,-32.25 11.53,-59.47 34.64,-81.66 22.86,-21.96 50.65,-32.93 83.36,-32.93l279.59 0 0 84.4 -279.59 0c-22.42,0 -33.62,10.06 -33.62,30.19l0 132.75c0,20.14 11.2,30.19 33.62,30.19l279.59 0 0 84.4z"/>
     <path class="fil0" d="M4211 1201.36l-84.05 0 0 -115.27 -274.8 0 0 115.27 -84.38 0 0 -250.1c0,-30.63 9.38,-56.71 28.14,-78.2 19.42,-22.42 44.01,-33.63 73.75,-33.63l238.76 0c29.73,0 54.43,11.21 74.11,33.63 18.98,21.49 28.47,47.57 28.47,78.2l0 250.1zm-358.85 -199.67l0 0 274.8 0 0 -50.43c0,-18.28 -6.18,-27.43 -18.53,-27.43l-238.76 0c-11.67,0 -17.51,9.15 -17.51,27.43l0 50.43z"/>
     <polygon class="fil0" points="4631.57,923.83 4330.37,923.83 4330.37,978.03 4612.71,978.03 4612.71,1062.07 4330.37,1062.07 4330.37,1201.36 4245.99,1201.36 4245.99,839.43 4631.57,839.43 "/>
     <polygon class="fil0" points="5041.87,923.83 4740.67,923.83 4740.67,978.03 5022.33,978.03 5022.33,1062.07 4740.67,1062.07 4740.67,1116.96 5041.87,1116.96 5041.87,1201.36 4656.29,1201.36 4656.29,839.43 5041.87,839.43 "/>
    </g>
    <g>
     <polygon class="fil0" points="1226.84,839.48 1021.52,1044.94 1021.52,839.48 "/>
     <polygon class="fil0" points="1582.77,839.48 1220.87,1201.38 1021.52,1201.38 1021.52,1184.76 1366.65,839.48 "/>
     <polygon class="fil0" points="1938.56,839.48 1576.8,1201.38 1362.25,1201.38 1361.54,1200.67 1722.59,839.48 "/>
     <polygon class="fil0" points="2294.49,839.48 1932.59,1201.38 1718.04,1201.38 1717.33,1200.67 2078.52,839.48 "/>
     <polygon class="fil0" points="2650.27,839.48 2288.52,1201.38 2073.97,1201.38 2073.26,1200.67 2434.3,839.48 "/>
     <polygon class="fil0" points="3006.2,839.48 2644.31,1201.38 2429.75,1201.38 2429.04,1200.67 2790.23,839.48 "/>
     <polygon class="fil0" points="3276.88,839.48 3276.88,924.59 3000.24,1201.38 2785.69,1201.38 2784.97,1200.67 3146.01,839.48 "/>
     <polygon class="fil0" points="3140.76,1200.67 3276.88,1064.55 3276.88,1201.38 3141.47,1201.38 "/>
     <polygon class="fil0" points="1226.84,839.48 1021.52,1044.94 1021.52,839.48 "/>
     <polygon class="fil0" points="1582.77,839.48 1220.87,1201.38 1021.52,1201.38 1021.52,1184.76 1366.65,839.48 "/>
     <polygon class="fil0" points="1938.56,839.48 1576.8,1201.38 1362.25,1201.38 1361.54,1200.67 1722.59,839.48 "/>
     <polygon class="fil0" points="2294.49,839.48 1932.59,1201.38 1718.04,1201.38 1717.33,1200.67 2078.52,839.48 "/>
     <polygon class="fil0" points="2650.27,839.48 2288.52,1201.38 2073.97,1201.38 2073.26,1200.67 2434.3,839.48 "/>
     <polygon class="fil0" points="3006.2,839.48 2644.31,1201.38 2429.75,1201.38 2429.04,1200.67 2790.23,839.48 "/>
     <polygon class="fil0" points="3276.88,839.48 3276.88,924.59 3000.24,1201.38 2785.69,1201.38 2784.97,1200.67 3146.01,839.48 "/>
     <polygon class="fil0" points="3276.88,1064.55 3276.88,1201.38 3141.47,1201.38 3140.76,1200.67 "/>
    </g>
   </g>
   <path class="fil0" d="M334.2 340.59c23.76,7.52 42.37,20.09 55.82,37.71 13.47,17.62 20.2,39.29 20.2,65.03 0,36.42 -14.16,64.43 -42.47,84.03 -28.3,19.6 -69.58,29.4 -123.82,29.4l-214.98 0 0 -415.72 203.11 0c50.67,0 89.57,9.7 116.69,29.11 27.12,19.39 40.68,45.72 40.68,78.98 0,20.19 -4.85,38.21 -14.55,54.04 -9.7,15.84 -23.26,28.31 -40.68,37.42zm-209.64 -127.09l0 97.99 95.62 0c23.75,0 41.77,-4.16 54.04,-12.48 12.27,-8.31 18.41,-20.58 18.41,-36.82 0,-16.23 -6.14,-28.4 -18.41,-36.52 -12.27,-8.12 -30.29,-12.17 -54.04,-12.17l-95.62 0zm112.25 270.8c25.34,0 44.44,-4.15 57.31,-12.47 12.86,-8.31 19.3,-21.18 19.3,-38.6 0,-34.44 -25.54,-51.67 -76.61,-51.67l-112.25 0 0 102.74 112.25 0zm437.09 -74.82l0 147.28 -96.21 0 0 -148.47 -160.94 -267.25 102.15 0 111.05 184.7 111.06 -184.7 94.42 0 -161.53 268.44z"/>
  </g>
 </g>
</svg>
